HIERARCHY
ROOT pelvis
{
  OFFSET 0 100 0
  CHANNELS 6 Xposition Yposition Zposition Zrotation Xrotation Yrotation
  JOINT pelvis_right_femur
  {
    OFFSET -10.78128 -3.44521 -0.5502486
    CHANNELS 3 Zrotation Xrotation Yrotation
    JOINT right_femur_tibia
    {
      OFFSET -0.8047443 -44.0398 -0.1307829
      CHANNELS 3 Zrotation Xrotation Yrotation
      JOINT right_tibia_foot
      {
        OFFSET 3.006224 -47.83518 -5
        CHANNELS 3 Zrotation Xrotation Yrotation
        End Site
        {
          OFFSET 0 -5 15
        }
      }
    }
  }
  JOINT pelvis_left_femur
  {
    OFFSET 10.78128 -3.44521 -0.5502486
    CHANNELS 3 Zrotation Xrotation Yrotation
    JOINT left_femur_tibia
    {
      OFFSET 0.8047443 -44.0398 -0.1307829
      CHANNELS 3 Zrotation Xrotation Yrotation
      JOINT left_tibia_foot
      {
        OFFSET -4.370144 -48.10324 -4.275266
        CHANNELS 3 Zrotation Xrotation Yrotation
        End Site
        {
          OFFSET 0 -5 15
        }
      }
    }
  }
  JOINT pelvis_spine1
  {
    OFFSET 0 6.468898 -3.129235
    CHANNELS 3 Zrotation Xrotation Yrotation
    JOINT spine1
    {
      OFFSET 0 23.15396 4.99043
      CHANNELS 3 Zrotation Xrotation Yrotation
      JOINT spine2
      {
        OFFSET 0 20.79997 -5.064912
        CHANNELS 3 Zrotation Xrotation Yrotation
        JOINT neck
        {
          OFFSET 0 14.38658 9.616178
          CHANNELS 3 Zrotation Xrotation Yrotation
          End Site
          {
            OFFSET 0 20 0
          }
        }
      }
      JOINT right_manubrium
      {
        OFFSET -5.722621 16.35077 3.967754
        CHANNELS 3 Zrotation Xrotation Yrotation
        JOINT right_clavicle
        {
          OFFSET -13.16364 1.694482 -4.693211
          CHANNELS 3 Zrotation Xrotation Yrotation
          JOINT right_humerus
          {
            OFFSET -28.5034 -0.3100689 -2.792744
            CHANNELS 3 Zrotation Xrotation Yrotation
            JOINT right_radius
            {
              OFFSET -25.15693 0.02248979 -1.271978
              CHANNELS 3 Zrotation Xrotation Yrotation
              End Site
              {
                OFFSET -15 0 0
              }
            }
          }
        }
      }
      JOINT left_manubrium
      {
        OFFSET 5.722621 16.35077 3.967754
        CHANNELS 3 Zrotation Xrotation Yrotation
        JOINT left_clavicle
        {
          OFFSET 13.16364 1.694482 -4.693211
          CHANNELS 3 Zrotation Xrotation Yrotation
          JOINT left_humerus
          {
            OFFSET 29.39168 -1.063119 -2.237045
            CHANNELS 3 Zrotation Xrotation Yrotation
            JOINT left_radius
            {
              OFFSET 24.59957 -0.9528479 0.9047498
              CHANNELS 3 Zrotation Xrotation Yrotation
              End Site
              {
                OFFSET 15 -0 -0
              }
            }
          }
        }
      }
    }
  }
}
MOTION
Frames: 17
Frame Time: 0.0416666666667
0 103.5113 0 2.184207 -1.181583 0.273008 1.238492 -10.12095 8.69406 -0 34.2069 -0 -5.274657 -17.89599 -2.29346 -8.04182 10.10008 -23.48178 -0 5.148624 -0 7.673176 -16.17294 26.56274 -4.35017 -5.04698 4.959646 2.033252 9.213548 -7.742683 0.8310764 22.79646 7.187971 3.265886 -23.10582 8.805603 6.372929 -19.75242 11.58231 86.30904 35.94676 -19.79988 -0 0 16.23204 -7.571798 8.240519 4.614389 5.509659 -19.47504 -1.712632 -94.77823 29.74666 22.90076 0 0 -16.03888 3.505928 17.87831 9.541223
0.3410006 103.4328 1.380533 2.044629 -1.026492 0.44556 1.479753 -11.16145 8.50363 -0 33.18002 -0 -5.330086 -17.35973 -2.161345 -7.922946 10.24783 -23.31112 -0 5.231291 -0 7.518903 -16.48578 26.35354 -4.31296 -4.845476 4.92178 2.146527 9.185408 -7.756308 0.8468829 22.65967 7.231137 3.319761 -23.24833 8.830584 6.355256 -19.67823 11.59457 86.29501 35.92575 -19.87015 -0 0 16.08088 -7.599079 8.269033 4.627606 5.606379 -19.50488 -1.752466 -94.66656 29.70536 22.68432 0 0 -16.42531 3.570601 17.74364 9.474034
0.697578 103.2828 2.878297 1.86891 -0.7834534 0.5566664 1.768517 -12.59142 8.19224 -0 31.19688 -0 -5.392471 -16.52165 -1.860546 -7.785834 10.44549 -23.03462 -0 5.399287 -0 7.276837 -16.93954 26.01728 -4.278769 -4.572555 4.894176 2.310216 9.146208 -7.758127 0.8769162 22.45663 7.286784 3.401323 -23.4498 8.862913 6.317707 -19.55509 11.60783 86.28855 35.89461 -19.98851 -0 0 15.83975 -7.636365 8.31394 4.64204 5.767153 -19.55451 -1.808319 -94.48885 29.64469 22.32739 0 0 -17.02508 3.663048 17.55373 9.363648
1.077776 103.0275 4.546964 1.696093 -0.4382821 0.6228798 2.035259 -14.2591 7.749756 -0 28.00067 -0 -5.445349 -15.35895 -1.338993 -7.674852 10.68416 -22.62969 -0 5.715041 -0 6.930136 -17.51418 25.52223 -4.261058 -4.264556 4.893672 2.501169 9.097589 -7.732197 0.9284728 22.20228 7.344796 3.509725 -23.69408 8.900252 6.244627 -19.37013 11.60925 86.31479 35.85334 -20.16797 -0 0 15.49916 -7.680676 8.378133 4.656577 5.996533 -19.64069 -1.866542 -94.22637 29.56834 21.80975 0 0 -17.82871 3.772809 17.31573 9.21064
1.48894 102.6379 6.446472 1.554051 0.01340107 0.6859415 2.229644 -15.99663 7.180051 -0 23.55076 -0 -5.488215 -13.89814 -0.5884276 -7.617635 10.95565 -22.08075 -0 6.248226 -0 6.455641 -18.16658 24.83736 -4.260402 -3.958266 4.923815 2.694843 9.0406 -7.674021 1.001895 21.91727 7.397689 3.639988 -23.96176 8.938186 6.12718 -19.11553 11.58702 86.39807 35.80226 -20.41732 -0 0 15.05505 -7.729312 8.464542 4.671508 6.284185 -19.77377 -1.916748 -93.8717 29.47852 21.13645 0 0 -18.79373 3.886229 17.03602 9.02618
1.932011 102.1116 8.640469 1.442541 0.5550239 0.8065382 2.350198 -17.58946 6.522456 -0 18.24732 -0 -5.546542 -12.28307 0.3192348 -7.599148 11.24943 -21.38421 -0 7.10081 -0 5.810416 -18.79297 23.92712 -4.246035 -3.692414 4.958611 2.867844 8.974382 -7.607091 1.079462 21.63275 7.44442 3.777196 -24.22563 8.964847 5.973874 -18.79262 11.53247 86.56164 35.74296 -20.7391 -0 0 14.50939 -7.77965 8.577105 4.68888 6.585746 -19.945 -1.960853 -93.44492 29.37459 20.36788 0 0 -19.80471 3.982665 16.71935 8.845374
2.39879 101.487 11.1964 1.34104 1.155936 1.058995 2.432564 -18.7777 5.84402 -0 12.77585 -0 -5.6538 -10.73533 1.264258 -7.575811 11.54791 -20.5428 -0 8.418038 -0 4.935289 -19.23381 22.74919 -4.164299 -3.508631 4.953983 2.997154 8.896667 -7.57213 1.131563 21.38652 7.487221 3.899374 -24.45245 8.962141 5.804632 -18.40698 11.43951 86.82899 35.67797 -21.13246 -0 0 13.86616 -7.829593 8.721033 4.712089 6.832578 -20.13157 -2.009838 -92.98444 29.25511 19.60178 0 0 -20.6958 4.036182 16.36885 8.71959
2.878756 100.8346 14.1759 1.221704 1.776793 1.50297 2.516412 -19.35919 5.209656 -0 7.735784 -0 -5.834301 -9.423964 2.144733 -7.506789 11.79951 -19.5758 -0 10.35026 -0 3.793061 -19.31071 21.29 -3.970549 -3.430031 4.888873 3.072294 8.808519 -7.590784 1.138087 21.19899 7.525026 3.989255 -24.61859 8.914967 5.639354 -17.9681 11.31621 87.20176 35.60914 -21.58412 -0 0 13.13901 -7.882365 8.899163 4.745621 6.968101 -20.30258 -2.076121 -92.53622 29.11798 18.92835 0 0 -21.34126 4.028634 15.98782 8.684698
3.365768 100.251 17.62077 1.050964 2.357515 2.139159 2.635374 -19.13653 4.688431 -0 3.680905 -0 -6.116425 -8.469423 2.868264 -7.349661 11.87808 -18.52291 -0 13.13563 -0 2.361761 -18.76278 19.5655 -3.623274 -3.462659 4.777377 3.095791 8.716967 -7.656512 1.089542 21.07066 7.550007 4.033078 -24.7064 8.808115 5.499265 -17.48865 11.1926 87.65437 35.53906 -22.06267 -0 0 12.35371 -7.95075 9.113061 4.797266 6.94022 -20.40938 -2.174977 -92.16606 28.95842 18.44355 0 0 -21.64537 3.946067 15.5785 8.762808
3.860136 99.84946 21.54587 0.812702 2.82454 2.898308 2.805555 -17.94631 4.332532 -0 1.008675 -0 -6.516522 -7.956349 3.368751 -7.074567 11.62019 -17.42853 -0 17.01 -0 0.6738519 -17.34928 17.64671 -3.101829 -3.59622 4.658293 3.073972 8.635276 -7.743079 0.9843445 20.99764 7.551471 4.022037 -24.70024 8.628762 5.402552 -16.98704 11.10601 88.14448 35.47143 -22.52194 -0 0 11.54597 -8.053382 9.36255 4.87741 6.713398 -20.40695 -2.317312 -91.93415 28.77201 18.22548 0 0 -21.55171 3.781059 15.14334 8.962554
4.369538 99.72426 25.92769 0.5515897 3.086815 3.670952 2.993549 -15.74031 4.133521 0 -0.3640944 0 -6.998956 -7.926481 3.660378 -6.711922 10.82841 -16.32617 -0 22.05975 -0 -1.117484 -15.04848 15.70718 -2.459641 -3.782866 4.60668 3.006353 8.591827 -7.79449 0.8330879 20.99287 7.518239 3.959151 -24.58068 8.372145 5.35722 -16.50149 11.08913 88.60571 35.41206 -22.88326 -0 0 10.77472 -8.216913 9.642537 5.001691 6.305109 -20.29162 -2.494054 -91.85229 28.55641 18.28198 0 0 -21.09952 3.543441 14.68928 9.265213
4.907457 99.91651 30.6819 0.3794068 3.018292 4.331835 3.112781 -12.52507 4.034769 0 -0.9491453 0 -7.47648 -8.413758 3.829906 -6.353235 9.206567 -15.24281 -0 28.27731 -0 -2.773918 -12.04517 13.99422 -1.828043 -3.930349 4.744782 2.882182 8.635526 -7.716035 0.6574764 21.09351 7.43555 3.857378 -24.31472 8.036823 5.364865 -16.09799 11.17709 88.93442 35.37141 -23.01602 -0 0 10.13477 -8.484719 9.943159 5.19671 5.779847 -20.09674 -2.676391 -91.8925 28.30812 18.56521 0 0 -20.41175 3.257192 14.22803 9.628243
5.48256 100.4205 35.67598 0.4006057 2.550448 4.774706 3.080267 -8.374777 3.980803 0 -1.275821 0 -7.863459 -9.401581 3.966337 -6.064074 6.537889 -14.19813 -0 35.41974 -0 -4.113465 -8.648994 12.69386 -1.333529 -3.962569 5.154436 2.691673 8.79612 -7.442705 0.4803323 21.32742 7.293285 3.732822 -23.88051 7.628394 5.415786 -15.8387 11.38138 89.03672 35.3566 -22.80698 -0 0 9.715915 -8.899023 10.25127 5.488212 5.211997 -19.86261 -2.833326 -92.01332 28.02445 19.01211 0 0 -19.6195 2.948102 13.77065 10.00832
6.091445 101.1888 40.76516 0.6741228 1.732738 4.968982 2.824905 -3.45543 3.927749 0 -1.718858 0 -8.08724 -10.77268 4.13489 -5.839952 2.76224 -13.20101 -0 42.71281 -0 -5.032343 -5.344483 11.91358 -1.073561 -3.856395 5.824254 2.430423 9.054909 -6.984567 0.3249936 21.69433 7.088635 3.602865 -23.27931 7.163208 5.477466 -15.78081 11.66336 88.82976 35.36308 -22.17223 -0 0 9.606027 -9.507069 10.54654 5.903692 4.683266 -19.62494 -2.93336 -92.16439 27.70418 19.55717 0 0 -18.8411 2.642139 13.32505 10.36679
6.724925 102.122 45.81931 1.220984 0.6863801 4.988948 2.28695 2.011926 3.846078 0 -2.548745 0 -8.078596 -12.34973 4.389636 -5.634105 -2.082815 -12.24726 -0 49.00736 -0 -5.47067 -2.712265 11.71824 -1.125526 -3.627333 6.685389 2.097739 9.362124 -6.398468 0.2148476 22.1743 6.823551 3.484399 -22.52652 6.664447 5.501844 -15.98147 11.95326 88.23248 35.37363 -21.03831 -0 0 9.899511 -10.36326 10.80198 6.474271 4.280704 -19.41427 -2.945156 -92.29199 27.34764 20.13693 0 0 -18.18456 2.364112 12.89719 10.66914
7.380002 103.0825 50.74632 1.98505 -0.453668 4.957518 1.493789 7.776006 3.749495 0 -3.824835 0 -7.810251 -13.99463 4.751569 -5.378445 -7.774885 -11.30823 -0 53.39565 -0 -5.467251 -1.019183 12.0917 -1.475652 -3.324906 7.645888 1.702891 9.667915 -5.747263 0.1559544 22.72313 6.514041 3.383796 -21.65795 6.160022 5.449826 -16.45268 12.19818 87.23079 35.3582 -19.40194 -0 0 10.63807 -11.48394 10.99579 7.209567 4.048512 -19.2357 -2.862048 -92.37309 26.96158 20.71954 0 0 -17.68646 2.120216 12.49009 10.90769
8.068075 103.9116 55.51891 2.804774 -1.520889 4.959122 0.5918347 13.5033 3.667791 0 -5.371718 0 -7.300447 -15.61937 5.199689 -4.969244 -13.8264 -10.30464 -0 55.10433 -0 -5.165687 -0.1356822 12.96604 -1.985262 -3.037958 8.575785 1.268438 9.920648 -5.099114 0.1300053 23.25693 6.200075 3.292263 -20.7389 5.690217 5.283603 -17.15485 12.3646 85.8837 35.27323 -17.33449 -0 0 11.81854 -12.84534 11.11154 8.097339 3.986006 -19.05885 -2.707049 -92.42362 26.5614 21.31097 0 0 -17.29533 1.891822 12.10308 11.10943
